# xmcd
#
# Track frame offsets:
#	150
#	15792
#	25303
#	36842
#	48424
#	62169
#	77560
#	88838
#	98678
#	112766
#	134442
#	147339
#	160542
#	168456
#	178019
#	192567
#	208613
#	217278
#	222977
#	235693
#	245746
#	260222
#	269032
#	277460
#	287175
#	296813
#	308025
#	320455
#	327068
#	338128
#
# Disc length: 4740 seconds
#
# Revision: 2
# Processed by: cddbd v1.5.2PL0 Copyright (c) Steve Scherf et al.
# Submitted via: EZCDAudioConverter 1.2.2.1
#
DISCID=d612821e
DTITLE=А. Розенбаум - Лучшие песни
DYEAR=1900
DGENRE=Vocal
TTITLE0=Глухари
TTITLE1=Заходите к нам на огонек
TTITLE2=Есаул молоденький
TTITLE3=Налетела грусть
TTITLE4=По снегу, летящему с неба
TTITLE5=Вальс на Лебяжей Канавке
TTITLE6=Отслужи мне, отслужи
TTITLE7=Амнистия
TTITLE8=На войне, как на войне
TTITLE9=В 62-ом году
TTITLE10=Фотография
TTITLE11=Гоп-стоп
TTITLE12=Полицейместер Геловани
TTITLE13=Песня невропатолога
TTITLE14=Скорая помощь
TTITLE15=Ничего нет невозможного
TTITLE16=Марк Шнейдер был Маркшейдер
TTITLE17=Ах, эти ночи!
TTITLE18=Лихо, мое лихо!
TTITLE19=Нинка
TTITLE20=Возвращение
TTITLE21=Встану рано по утру
TTITLE22=Супчик из цветной капусты
TTITLE23=Новелла о нотах
TTITLE24=Шилохвость
TTITLE25=Четвертиночка
TTITLE26=Гулливер
TTITLE27=Мы все поймем
TTITLE28=Судьба непростая
TTITLE29=Черный тюльпан
EXTD=
EXTT0=
EXTT1=
EXTT2=
EXTT3=
EXTT4=
EXTT5=
EXTT6=
EXTT7=
EXTT8=
EXTT9=
EXTT10=
EXTT11=
EXTT12=
EXTT13=
EXTT14=
EXTT15=
EXTT16=
EXTT17=
EXTT18=
EXTT19=
EXTT20=
EXTT21=
EXTT22=
EXTT23=
EXTT24=
EXTT25=
EXTT26=
EXTT27=
EXTT28=
EXTT29=
PLAYORDER=
